HIERARCHY
ROOT Hips
{
	OFFSET -0.001795 -0.223333 0.028219
	CHANNELS 6 Xposition Yposition Zposition Zrotation Yrotation Xrotation 
	JOINT LeftUpLeg
	{
		OFFSET 0.069520 -0.091406 -0.006815
		CHANNELS 3 Zrotation Yrotation Xrotation
		JOINT LeftLeg
		{
			OFFSET 0.034277 -0.375199 -0.004496
			CHANNELS 3 Zrotation Yrotation Xrotation
			JOINT LeftFoot
			{
				OFFSET -0.013596 -0.397961 -0.043693
				CHANNELS 3 Zrotation Yrotation Xrotation
				JOINT LeftToe
				{
					OFFSET 0.026358 -0.055791 0.119288
					CHANNELS 3 Zrotation Yrotation Xrotation
					End Site
					{
						OFFSET 0.000000 0.000000 0.000000
					}
				}
			}
		}
	}
	JOINT RightUpLeg
	{
		OFFSET -0.067670 -0.090522 -0.004320
		CHANNELS 3 Zrotation Yrotation Xrotation
		JOINT RightLeg
		{
			OFFSET -0.038290 -0.382569 -0.008850
			CHANNELS 3 Zrotation Yrotation Xrotation
			JOINT RightFoot
			{
				OFFSET 0.015774 -0.398415 -0.042312
				CHANNELS 3 Zrotation Yrotation Xrotation
				JOINT RightToe
				{
					OFFSET -0.025372 -0.048144 0.123348
					CHANNELS 3 Zrotation Yrotation Xrotation
					End Site
					{
						OFFSET 0.000000 0.000000 0.000000
					}
				}
			}
		}
	}
	JOINT Spine
	{
		OFFSET -0.002533 0.108963 -0.026696
		CHANNELS 3 Zrotation Yrotation Xrotation
		JOINT Spine1
		{
			OFFSET 0.005487 0.135180 0.001092
			CHANNELS 3 Zrotation Yrotation Xrotation
			JOINT Spine2
			{
				OFFSET 0.001457 0.052922 0.025425
				CHANNELS 3 Zrotation Yrotation Xrotation
				JOINT Neck
				{
					OFFSET -0.002778 0.213870 -0.042857
					CHANNELS 3 Zrotation Yrotation Xrotation
					JOINT Head
					{
						OFFSET 0.005152 0.064970 0.051349
						CHANNELS 3 Zrotation Yrotation Xrotation
						End Site
						{
							OFFSET 0.000000 0.000000 0.000000
						}
					}
				}
				JOINT LeftShoulder
				{
					OFFSET 0.078845 0.121749 -0.034090
					CHANNELS 3 Zrotation Yrotation Xrotation
					JOINT LeftArm
					{
						OFFSET 0.090977 0.030469 -0.008868
						CHANNELS 3 Zrotation Yrotation Xrotation
						JOINT LeftForeArm
						{
							OFFSET 0.259612 -0.012772 -0.027456
							CHANNELS 3 Zrotation Yrotation Xrotation
							JOINT LeftHand
							{
								OFFSET 0.249234 0.008986 -0.001171
								CHANNELS 3 Zrotation Yrotation Xrotation
								End Site
								{
									OFFSET 0.000000 0.000000 0.000000
								}
							}
						}
					}
				}
				JOINT RightShoulder
				{
					OFFSET -0.081759 0.118833 -0.038615
					CHANNELS 3 Zrotation Yrotation Xrotation
					JOINT RightArm
					{
						OFFSET -0.096012 0.032551 -0.009143
						CHANNELS 3 Zrotation Yrotation Xrotation
						JOINT RightForeArm
						{
							OFFSET -0.253742 -0.013329 -0.021401
							CHANNELS 3 Zrotation Yrotation Xrotation
							JOINT RightHand
							{
								OFFSET -0.255298 0.007772 -0.005559
								CHANNELS 3 Zrotation Yrotation Xrotation
								End Site
								{
									OFFSET 0.000000 0.000000 0.000000
								}
							}
						}
					}
				}
			}
		}
	}
}
MOTION
Frames: 12
Frame Time: 0.050000
2.473604 0.925890 1.242674 7.663943 -3.969041 -2.263752 0.956156 -1.681766 -21.656510 4.437224 -1.634867 17.109992 -8.484158 -13.167404 7.009352 0.000000 0.000000 0.000000 11.899411 -1.574727 6.816769 -13.108507 6.771885 29.768324 12.614616 24.233493 7.423322 0.000000 0.000000 0.000000 -1.749371 -0.215872 12.011548 -0.234968 0.166794 -4.688643 -1.775546 9.261482 11.425245 13.912849 -6.411611 -18.649147 0.000000 0.000000 0.000000 -25.581474 5.000865 -7.699816 -47.124023 2.206880 -6.323848 -9.042384 -31.691792 3.305811 0.000000 0.000000 0.000000 19.110988 -9.373155 -5.116974 49.726273 -1.789623 -6.387766 30.401474 45.224503 15.900132 0.000000 0.000000 0.000000 
2.483186 0.921855 1.297803 7.982196 -9.430184 -3.286784 -0.770325 -1.700864 -19.991246 6.290238 -2.109172 20.417055 -9.118087 -12.949114 9.633926 0.000000 0.000000 0.000000 9.316537 -0.658735 2.684380 -9.117082 9.061873 44.415630 12.127037 18.019110 12.159475 0.000000 0.000000 0.000000 -3.290199 0.018710 11.256035 0.474875 -0.216633 -4.979562 -2.129567 7.865554 12.492797 15.141028 -8.023055 -17.504348 0.000000 0.000000 0.000000 -25.025098 4.399767 -5.690297 -46.936882 1.180350 -6.456417 -8.611742 -30.160395 3.437408 0.000000 0.000000 0.000000 18.047829 -8.079986 -5.198465 50.546073 -2.488877 -6.724880 31.763592 43.596047 14.969708 0.000000 0.000000 0.000000 
2.489174 0.910163 1.347161 8.883796 -16.231385 -5.604633 -1.600528 -1.548059 -18.156118 5.335267 -1.369118 28.440581 -6.090330 -10.835074 3.513506 0.000000 0.000000 0.000000 6.767381 0.615110 -5.181556 -0.512822 11.053839 65.353086 8.648481 7.885566 16.352594 0.000000 0.000000 0.000000 -4.202588 0.289200 13.487534 -0.066255 -0.085066 -4.616740 -1.884673 5.518493 11.519743 14.907501 -8.504415 -17.084555 0.000000 0.000000 0.000000 -25.789427 4.958162 -4.175702 -45.041341 0.081024 -6.315381 -8.041581 -31.058457 3.860167 0.000000 0.000000 0.000000 17.973665 -6.727155 -5.799805 50.332715 -4.048150 -7.056182 30.874524 42.490710 12.885329 0.000000 0.000000 0.000000 
2.490461 0.898561 1.386168 9.010316 -21.429649 -8.105224 -1.804959 -1.332082 -15.459410 6.126687 -0.718980 34.336403 -3.467149 -8.406437 -3.403764 0.000000 0.000000 0.000000 5.005428 2.033762 -13.940712 9.785945 7.769616 78.552413 1.496895 -3.308508 13.369163 0.000000 0.000000 0.000000 -3.569484 0.491090 16.653694 -0.687040 0.111937 -4.414776 -2.832791 2.400174 11.989407 13.495573 -7.727221 -19.487881 0.000000 0.000000 0.000000 -25.043730 3.614838 -1.381298 -43.750776 -5.382558 -4.972638 -4.943544 -30.187648 3.289926 0.000000 0.000000 0.000000 18.667486 -5.804188 -6.765991 50.771220 -4.602616 -7.190710 29.373401 43.575526 11.559587 0.000000 0.000000 0.000000 
2.485819 0.894867 1.418493 8.909761 -26.386892 -9.388652 -1.357178 -0.984146 -11.336682 5.746105 0.309326 34.665268 -0.778957 -2.587942 -5.495435 0.000000 0.000000 0.000000 2.861615 3.534168 -22.093112 16.842488 3.528082 79.074706 -3.525021 -10.615236 5.329489 0.000000 0.000000 0.000000 -3.299999 0.738633 18.336030 -0.000309 -0.246211 -4.380082 -4.176718 -0.792994 12.123798 12.198166 -7.394661 -20.273075 0.000000 0.000000 0.000000 -23.659335 2.632970 0.941166 -44.523354 -9.155008 -4.238256 -1.364063 -31.637179 2.885502 0.000000 0.000000 0.000000 18.796226 -4.108103 -7.312817 52.594372 -4.706850 -7.341486 24.849219 40.180979 8.029016 0.000000 0.000000 0.000000 
2.474064 0.901253 1.448014 8.305740 -32.277582 -8.812219 -0.493961 -0.505398 -5.955721 3.873332 1.261065 29.547793 1.349846 3.182489 -5.650842 0.000000 0.000000 0.000000 1.490940 4.823090 -27.433329 17.311256 3.890206 68.452318 -7.157897 -17.715057 -0.709542 0.000000 0.000000 0.000000 -2.675043 0.831187 18.265007 -0.224625 -0.242047 -5.289235 -3.934161 -2.243700 13.845379 9.763899 -6.431197 -21.521465 0.000000 0.000000 0.000000 -21.277229 1.708787 2.620073 -45.568700 -12.580346 -3.225762 1.337409 -35.861134 2.994033 0.000000 0.000000 0.000000 20.319552 -3.138668 -8.720375 51.039448 -6.106932 -7.297628 23.251914 37.638157 6.354418 0.000000 0.000000 0.000000 
2.454048 0.912186 1.475531 7.626562 -37.112373 -7.715154 0.631461 0.146204 0.189268 1.151801 1.584900 21.914945 3.677120 9.048989 -2.011734 0.000000 0.000000 0.000000 -0.028532 5.459501 -29.935039 11.603317 5.361564 51.767158 -8.702699 -19.919458 -4.153797 0.000000 0.000000 0.000000 -1.394855 0.703145 17.614734 -0.703381 -0.098830 -5.579408 -3.203768 -4.803170 13.612001 7.000831 -5.461105 -21.369483 0.000000 0.000000 0.000000 -20.214802 3.915092 2.389804 -46.650102 -15.178470 -2.258700 3.261416 -38.390822 3.312742 0.000000 0.000000 0.000000 19.097495 -2.900146 -9.624163 52.303228 -8.766965 -8.594290 21.569115 35.111545 4.729965 0.000000 0.000000 0.000000 
2.424600 0.919398 1.501553 6.435946 -40.124438 -5.141990 1.398924 0.629837 3.894019 1.203004 1.113868 17.850317 4.862245 11.482736 0.627578 0.000000 0.000000 0.000000 -0.563755 5.748738 -30.742690 4.862076 4.258423 33.943536 -9.685556 -21.541264 -2.534666 0.000000 0.000000 0.000000 0.014528 0.395075 16.095365 -0.443181 -0.196816 -5.317701 -2.876254 -5.291954 12.360304 7.075075 -5.642421 -20.271762 0.000000 0.000000 0.000000 -19.437578 5.612761 1.518240 -47.514963 -15.485400 -1.673794 -0.121805 -42.873106 5.471909 0.000000 0.000000 0.000000 19.739126 -4.384276 -11.146783 51.443540 -11.983213 -9.692269 20.780913 33.446969 4.198815 0.000000 0.000000 0.000000 
2.385278 0.923731 1.526079 5.871803 -42.465080 -3.203943 2.425032 0.969893 5.983744 1.672890 0.798851 15.996592 5.918586 11.878856 7.293853 0.000000 0.000000 0.000000 -2.058863 4.931781 -28.721727 4.402345 2.048232 22.185109 -8.532531 -19.591682 0.512602 0.000000 0.000000 0.000000 0.803438 0.103872 13.485354 0.199512 -0.354743 -4.059643 -3.261443 -4.614009 9.960946 7.195118 -5.634842 -18.722065 0.000000 0.000000 0.000000 -19.967181 5.172649 1.813910 -46.737241 -15.467968 -1.536004 -1.759435 -44.954379 6.338558 0.000000 0.000000 0.000000 19.075297 -4.952994 -11.029370 52.262944 -14.915051 -11.356244 21.110006 33.253507 4.282984 0.000000 0.000000 0.000000 
2.340035 0.924346 1.547209 5.128010 -45.207899 -1.688511 4.969113 1.152052 5.956788 0.221177 2.219516 20.149415 6.491146 11.801597 11.515429 0.000000 0.000000 0.000000 -0.917636 4.674759 -26.900207 5.302986 1.479546 18.802194 -8.119234 -20.290981 4.353333 0.000000 0.000000 0.000000 2.159996 -0.137019 11.569412 -0.179470 -0.144009 -3.575184 -3.142071 -3.343666 8.015954 5.449384 -4.646103 -17.652241 0.000000 0.000000 0.000000 -21.751659 5.971497 1.622938 -45.486539 -15.926066 -1.583740 -3.286583 -45.093003 6.909959 0.000000 0.000000 0.000000 19.206941 -5.181516 -11.213638 51.619217 -16.854990 -11.890218 20.702289 30.856131 3.869230 0.000000 0.000000 0.000000 
2.294360 0.925462 1.562783 5.246134 -48.914787 -1.426464 7.303975 1.272024 3.821819 -0.515456 5.063672 27.937118 5.001690 8.468048 14.590864 0.000000 0.000000 0.000000 0.335015 4.491879 -25.346856 5.678866 1.769528 19.777572 -8.945081 -21.358214 4.427967 0.000000 0.000000 0.000000 3.030756 -0.206434 10.911053 -1.338205 0.325473 -3.651215 -2.192999 -3.542838 7.992471 4.219358 -4.135082 -19.093415 0.000000 0.000000 0.000000 -24.770522 6.945711 2.340785 -43.531065 -16.249703 -2.281369 -3.734298 -46.017000 7.494758 0.000000 0.000000 0.000000 17.873111 -3.983773 -10.647093 51.439761 -16.245741 -11.650734 22.995670 28.891141 3.818128 0.000000 0.000000 0.000000 
2.253546 0.928018 1.573156 5.861708 -52.908721 -2.242132 7.086992 1.140712 0.046848 2.545231 7.579776 36.949615 0.946091 1.873302 14.300833 0.000000 0.000000 0.000000 1.920003 4.056056 -23.024438 5.498750 1.894607 19.156045 -8.501579 -19.278591 3.231538 0.000000 0.000000 0.000000 3.601806 -0.137112 12.145907 -2.249167 0.579248 -4.513702 -2.581683 -2.479074 8.812433 4.303734 -4.334033 -20.413533 0.000000 0.000000 0.000000 -26.843513 6.958479 3.449613 -42.657081 -18.510685 -2.231339 -2.203511 -44.352760 6.573445 0.000000 0.000000 0.000000 18.940097 -3.106208 -11.303980 50.427000 -16.051699 -10.973753 23.927491 30.554794 4.135634 0.000000 0.000000 0.000000 
